<?xml version="1.0" encoding="UTF-8"?>
<svg xmlns="http://www.w3.org/2000/svg" xmlns:xlink="http://www.w3.org/1999/xlink" width="190px" height="66px" viewBox="0 0 224 66" version="1.1">
<g id="surface1">
<path style=" stroke:none;fill-rule:evenodd;fill:rgb(41.568627%,20.784314%,100%);fill-opacity:1;" d="M 217.578125 53.386719 C 214.75 53.386719 212.460938 55.6875 212.460938 58.523438 C 212.460938 61.359375 214.75 63.660156 217.578125 63.660156 C 220.40625 63.660156 222.695312 61.359375 222.695312 58.523438 C 222.695312 55.6875 220.40625 53.386719 217.578125 53.386719 Z M 211.15625 58.523438 C 211.15625 54.964844 214.03125 52.078125 217.578125 52.078125 C 221.125 52.078125 224 54.964844 224 58.523438 C 224 62.082031 221.125 64.96875 217.578125 64.96875 C 214.03125 64.96875 211.15625 62.082031 211.15625 58.523438 Z M 211.15625 58.523438 "/>
<path style=" stroke:none;fill-rule:nonzero;fill:rgb(41.568627%,20.784314%,100%);fill-opacity:1;" d="M 217.226562 58 C 217.585938 58 217.84375 57.929688 218 57.789062 C 218.15625 57.660156 218.242188 57.4375 218.242188 57.121094 C 218.242188 56.816406 218.15625 56.601562 218 56.460938 C 217.84375 56.332031 217.585938 56.265625 217.226562 56.265625 L 216.496094 56.265625 L 216.496094 58 Z M 216.496094 59.199219 L 216.496094 61.75 L 214.761719 61.75 L 214.761719 55.003906 L 217.410156 55.003906 C 218.296875 55.003906 218.941406 55.152344 219.351562 55.453125 C 219.769531 55.75 219.96875 56.21875 219.96875 56.867188 C 219.96875 57.3125 219.867188 57.679688 219.652344 57.96875 C 219.4375 58.25 219.117188 58.464844 218.679688 58.59375 C 218.921875 58.65625 219.128906 58.777344 219.320312 58.96875 C 219.507812 59.15625 219.695312 59.445312 219.886719 59.839844 L 220.832031 61.75 L 218.984375 61.75 L 218.164062 60.074219 C 218 59.742188 217.832031 59.503906 217.664062 59.386719 C 217.492188 59.261719 217.265625 59.199219 216.984375 59.199219 Z M 216.496094 59.199219 "/>
<path style=" stroke:none;fill-rule:nonzero;fill:rgb(41.568627%,20.784314%,100%);fill-opacity:1;" d="M 196.738281 0 L 165.761719 0 C 164.40625 0 163.066406 0.273438 161.816406 0.800781 C 160.566406 1.332031 159.429688 2.109375 158.472656 3.085938 C 157.515625 4.0625 156.757812 5.226562 156.238281 6.503906 C 155.722656 7.78125 155.453125 9.152344 155.453125 10.535156 L 155.453125 55.464844 C 155.453125 58.257812 156.539062 60.9375 158.472656 62.914062 C 160.40625 64.890625 163.027344 66 165.761719 66 L 196.738281 66 C 199.472656 66 202.09375 64.890625 204.027344 62.914062 C 205.960938 60.9375 207.046875 58.257812 207.046875 55.464844 L 207.046875 10.535156 C 207.046875 7.742188 205.960938 5.0625 204.027344 3.085938 C 202.09375 1.109375 199.472656 0 196.738281 0 Z M 173.277344 51.804688 L 168.160156 51.804688 L 168.160156 22.914062 L 173.277344 22.914062 Z M 173.195312 16.347656 C 172.871094 16.679688 172.484375 16.941406 172.058594 17.113281 C 171.632812 17.285156 171.175781 17.371094 170.714844 17.355469 C 170.261719 17.371094 169.804688 17.289062 169.378906 17.121094 C 168.953125 16.953125 168.566406 16.699219 168.238281 16.375 C 167.917969 16.066406 167.667969 15.695312 167.496094 15.28125 C 167.328125 14.867188 167.242188 14.425781 167.25 13.976562 C 167.246094 13.523438 167.328125 13.078125 167.5 12.660156 C 167.667969 12.242188 167.917969 11.863281 168.238281 11.550781 C 168.5625 11.21875 168.949219 10.957031 169.375 10.785156 C 169.800781 10.609375 170.257812 10.527344 170.714844 10.542969 C 171.632812 10.511719 172.527344 10.855469 173.195312 11.496094 C 173.515625 11.796875 173.769531 12.164062 173.9375 12.574219 C 174.109375 12.984375 174.191406 13.421875 174.183594 13.867188 C 174.191406 14.328125 174.109375 14.785156 173.941406 15.210938 C 173.769531 15.636719 173.519531 16.023438 173.195312 16.347656 Z M 194.816406 51.613281 C 193.710938 51.960938 192.558594 52.132812 191.402344 52.132812 C 188.558594 52.132812 186.355469 51.351562 184.792969 49.789062 C 183.226562 48.226562 182.445312 45.988281 182.445312 43.082031 L 182.445312 27.222656 L 177.648438 27.222656 L 177.648438 22.914062 L 182.445312 22.914062 L 182.445312 16.59375 L 187.566406 16.59375 L 187.566406 22.914062 L 195.667969 22.914062 L 195.667969 27.222656 L 187.566406 27.222656 L 187.566406 42.867188 C 187.566406 44.429688 187.945312 45.628906 188.710938 46.464844 C 189.476562 47.300781 190.566406 47.71875 191.988281 47.71875 C 193.4375 47.757812 194.851562 47.273438 195.988281 46.355469 L 197.589844 50.117188 C 196.773438 50.804688 195.832031 51.316406 194.816406 51.613281 Z M 194.816406 51.613281 "/>
<path style=" stroke:none;fill-rule:nonzero;fill:rgb(41.568627%,20.784314%,100%);fill-opacity:1;" d="M 9.890625 28.476562 C 11.417969 27.625 13.136719 27.195312 14.875 27.222656 C 16.390625 27.203125 17.890625 27.558594 19.246094 28.257812 C 20.59375 28.980469 21.734375 30.050781 22.550781 31.363281 L 26.445312 28.800781 C 25.371094 26.832031 23.746094 25.238281 21.78125 24.222656 C 19.652344 23.140625 17.304688 22.601562 14.929688 22.644531 C 12.246094 22.59375 9.59375 23.242188 7.222656 24.523438 C 5.015625 25.730469 3.179688 27.542969 1.917969 29.757812 C 0.660156 32.085938 0 34.699219 0 37.359375 C 0 40.019531 0.660156 42.636719 1.917969 44.964844 C 3.179688 47.183594 5.015625 49.003906 7.222656 50.222656 C 9.589844 51.523438 12.242188 52.179688 14.929688 52.132812 C 17.304688 52.175781 19.65625 51.621094 21.78125 50.523438 C 23.746094 49.492188 25.367188 47.890625 26.445312 45.917969 L 22.550781 43.410156 C 21.734375 44.722656 20.59375 45.792969 19.246094 46.515625 C 17.890625 47.21875 16.394531 47.574219 14.875 47.554688 C 13.136719 47.582031 11.417969 47.148438 9.890625 46.300781 C 8.421875 45.472656 7.21875 44.234375 6.421875 42.726562 C 5.5625 41.078125 5.132812 39.230469 5.171875 37.359375 C 5.136719 35.507812 5.566406 33.679688 6.421875 32.046875 C 7.21875 30.539062 8.421875 29.300781 9.890625 28.476562 Z M 9.890625 28.476562 "/>
<path style=" stroke:none;fill-rule:nonzero;fill:rgb(41.568627%,20.784314%,100%);fill-opacity:1;" d="M 36.46875 11.359375 L 31.351562 11.359375 L 31.351562 51.804688 L 36.46875 51.804688 Z M 36.46875 11.359375 "/>
<path style=" stroke:none;fill-rule:nonzero;fill:rgb(41.568627%,20.784314%,100%);fill-opacity:1;" d="M 63.6875 24.523438 C 61.484375 23.246094 58.992188 22.597656 56.460938 22.644531 C 53.914062 22.601562 51.40625 23.25 49.183594 24.523438 C 47.050781 25.761719 45.296875 27.582031 44.117188 29.785156 C 42.875 32.105469 42.242188 34.714844 42.277344 37.359375 C 42.238281 40.03125 42.890625 42.664062 44.171875 44.992188 C 45.425781 47.238281 47.285156 49.0625 49.53125 50.25 C 51.742188 51.363281 54.15625 51.996094 56.617188 52.113281 C 59.082031 52.230469 61.539062 51.828125 63.84375 50.933594 C 65.6875 50.179688 67.324219 48.980469 68.617188 47.445312 L 65.792969 44.0625 C 63.730469 46.390625 61.011719 47.554688 57.632812 47.554688 C 54.863281 47.554688 52.542969 46.78125 50.675781 45.234375 C 49.761719 44.488281 49 43.558594 48.4375 42.507812 C 47.875 41.453125 47.519531 40.296875 47.398438 39.105469 L 70.324219 39.105469 C 70.386719 38.578125 70.421875 38.050781 70.429688 37.523438 C 70.480469 34.832031 69.867188 32.167969 68.644531 29.785156 C 67.507812 27.589844 65.789062 25.765625 63.6875 24.523438 Z M 47.398438 35.34375 C 47.597656 33.042969 48.636719 30.902344 50.304688 29.347656 C 51.957031 27.820312 54.011719 27.058594 56.460938 27.058594 C 58.914062 27.058594 60.964844 27.832031 62.621094 29.375 C 64.277344 30.929688 65.3125 33.054688 65.527344 35.34375 Z M 47.398438 35.34375 "/>
<path style=" stroke:none;fill-rule:nonzero;fill:rgb(41.568627%,20.784314%,100%);fill-opacity:1;" d="M 85.730469 46.082031 L 76.027344 22.914062 L 70.695312 22.914062 L 83.066406 51.804688 L 88.292969 51.804688 L 100.660156 22.914062 L 95.648438 22.914062 Z M 85.730469 46.082031 "/>
<path style=" stroke:none;fill-rule:nonzero;fill:rgb(41.568627%,20.784314%,100%);fill-opacity:1;" d="M 122.121094 24.523438 C 119.921875 23.246094 117.425781 22.597656 114.894531 22.644531 C 112.351562 22.601562 109.839844 23.25 107.617188 24.523438 C 105.484375 25.761719 103.730469 27.582031 102.554688 29.785156 C 101.308594 32.105469 100.675781 34.714844 100.714844 37.359375 C 100.671875 40.03125 101.324219 42.664062 102.605469 44.992188 C 103.859375 47.238281 105.71875 49.0625 107.964844 50.25 C 110.175781 51.363281 112.589844 51.996094 115.054688 52.113281 C 117.515625 52.230469 119.976562 51.828125 122.28125 50.929688 C 124.121094 50.175781 125.757812 48.980469 127.050781 47.441406 L 124.226562 44.0625 C 122.164062 46.390625 119.445312 47.554688 116.070312 47.554688 C 113.296875 47.554688 110.976562 46.78125 109.109375 45.238281 C 108.195312 44.488281 107.433594 43.558594 106.871094 42.507812 C 106.308594 41.453125 105.953125 40.296875 105.832031 39.105469 L 128.757812 39.105469 C 128.820312 38.578125 128.855469 38.050781 128.863281 37.523438 C 128.914062 34.832031 128.300781 32.167969 127.078125 29.785156 C 125.941406 27.589844 124.222656 25.765625 122.121094 24.523438 Z M 105.832031 35.34375 C 106.03125 33.042969 107.070312 30.902344 108.738281 29.347656 C 110.390625 27.820312 112.445312 27.058594 114.894531 27.058594 C 117.347656 27.058594 119.402344 27.832031 121.054688 29.375 C 122.710938 30.929688 123.746094 33.054688 123.960938 35.34375 Z M 105.832031 35.34375 "/>
<path style=" stroke:none;fill-rule:nonzero;fill:rgb(41.568627%,20.784314%,100%);fill-opacity:1;" d="M 139.527344 27.769531 L 139.527344 22.914062 L 134.621094 22.914062 L 134.621094 51.804688 L 139.742188 51.804688 L 139.742188 37.414062 C 139.742188 34.289062 140.53125 31.882812 142.113281 30.191406 C 143.695312 28.503906 145.871094 27.65625 148.644531 27.65625 C 149.035156 27.652344 149.429688 27.671875 149.820312 27.710938 L 149.820312 22.640625 C 147.328125 22.640625 145.214844 23.078125 143.472656 23.949219 C 141.792969 24.761719 140.414062 26.097656 139.527344 27.769531 Z M 139.527344 27.769531 "/>
</g>
</svg>
